<mxfile host="app.diagrams.net" modified="2023-10-23T01:37:07.132Z" agent="Mozilla/5.0 (Windows NT 10.0; Win64; x64) AppleWebKit/537.36 (KHTML, like Gecko) Chrome/118.0.0.0 Safari/537.36 Edg/118.0.2088.61" etag="LV_JA8o7LbadGPpJJmK4" version="22.0.6" type="github">
  <diagram name="第 1 页" id="lXaEl1xNoL3VWWbQ63Rl">
    <mxGraphModel dx="947" dy="712" grid="1" gridSize="10" guides="1" tooltips="1" connect="1" arrows="1" fold="1" page="1" pageScale="1" pageWidth="827" pageHeight="1169" math="0" shadow="0">
      <root>
        <mxCell id="0" />
        <mxCell id="1" parent="0" />
        <mxCell id="7yZ7YFMZfSHpDbEFMPb3-3" value="" style="edgeStyle=orthogonalEdgeStyle;rounded=0;orthogonalLoop=1;jettySize=auto;html=1;" edge="1" parent="1" source="7yZ7YFMZfSHpDbEFMPb3-1" target="7yZ7YFMZfSHpDbEFMPb3-2">
          <mxGeometry relative="1" as="geometry" />
        </mxCell>
        <mxCell id="7yZ7YFMZfSHpDbEFMPb3-1" value="使用模型中心功能构建基础模型" style="rounded=0;whiteSpace=wrap;html=1;fillColor=#dae8fc;strokeColor=#6c8ebf;" vertex="1" parent="1">
          <mxGeometry x="320" y="45" width="120" height="60" as="geometry" />
        </mxCell>
        <mxCell id="7yZ7YFMZfSHpDbEFMPb3-6" value="" style="edgeStyle=orthogonalEdgeStyle;rounded=0;orthogonalLoop=1;jettySize=auto;html=1;" edge="1" parent="1" source="7yZ7YFMZfSHpDbEFMPb3-2" target="7yZ7YFMZfSHpDbEFMPb3-5">
          <mxGeometry relative="1" as="geometry" />
        </mxCell>
        <mxCell id="7yZ7YFMZfSHpDbEFMPb3-2" value="部署验证基础模型" style="whiteSpace=wrap;html=1;rounded=0;fillColor=#d5e8d4;strokeColor=#82b366;" vertex="1" parent="1">
          <mxGeometry x="320" y="185" width="120" height="60" as="geometry" />
        </mxCell>
        <mxCell id="7yZ7YFMZfSHpDbEFMPb3-11" value="" style="edgeStyle=orthogonalEdgeStyle;rounded=0;orthogonalLoop=1;jettySize=auto;html=1;" edge="1" parent="1" source="7yZ7YFMZfSHpDbEFMPb3-5" target="7yZ7YFMZfSHpDbEFMPb3-7">
          <mxGeometry relative="1" as="geometry" />
        </mxCell>
        <mxCell id="7yZ7YFMZfSHpDbEFMPb3-13" value="准确度不足" style="edgeLabel;html=1;align=center;verticalAlign=middle;resizable=0;points=[];" vertex="1" connectable="0" parent="7yZ7YFMZfSHpDbEFMPb3-11">
          <mxGeometry x="-0.0143" relative="1" as="geometry">
            <mxPoint as="offset" />
          </mxGeometry>
        </mxCell>
        <mxCell id="7yZ7YFMZfSHpDbEFMPb3-15" value="" style="edgeStyle=orthogonalEdgeStyle;rounded=0;orthogonalLoop=1;jettySize=auto;html=1;" edge="1" parent="1" source="7yZ7YFMZfSHpDbEFMPb3-5" target="7yZ7YFMZfSHpDbEFMPb3-14">
          <mxGeometry relative="1" as="geometry" />
        </mxCell>
        <mxCell id="7yZ7YFMZfSHpDbEFMPb3-16" value="准确度足够" style="edgeLabel;html=1;align=center;verticalAlign=middle;resizable=0;points=[];" vertex="1" connectable="0" parent="7yZ7YFMZfSHpDbEFMPb3-15">
          <mxGeometry x="-0.2254" y="-1" relative="1" as="geometry">
            <mxPoint as="offset" />
          </mxGeometry>
        </mxCell>
        <mxCell id="7yZ7YFMZfSHpDbEFMPb3-5" value="基础模型效果初判断" style="rhombus;whiteSpace=wrap;html=1;rounded=0;fillColor=#d5e8d4;strokeColor=#82b366;" vertex="1" parent="1">
          <mxGeometry x="340" y="315" width="80" height="80" as="geometry" />
        </mxCell>
        <mxCell id="7yZ7YFMZfSHpDbEFMPb3-12" style="edgeStyle=orthogonalEdgeStyle;rounded=0;orthogonalLoop=1;jettySize=auto;html=1;exitX=0.5;exitY=0;exitDx=0;exitDy=0;entryX=1;entryY=0.5;entryDx=0;entryDy=0;" edge="1" parent="1" source="7yZ7YFMZfSHpDbEFMPb3-7" target="7yZ7YFMZfSHpDbEFMPb3-2">
          <mxGeometry relative="1" as="geometry" />
        </mxCell>
        <mxCell id="7yZ7YFMZfSHpDbEFMPb3-7" value="继续优化基础模型" style="rounded=0;whiteSpace=wrap;html=1;fillColor=#dae8fc;strokeColor=#6c8ebf;" vertex="1" parent="1">
          <mxGeometry x="530" y="325" width="120" height="60" as="geometry" />
        </mxCell>
        <mxCell id="7yZ7YFMZfSHpDbEFMPb3-18" value="" style="edgeStyle=orthogonalEdgeStyle;rounded=0;orthogonalLoop=1;jettySize=auto;html=1;" edge="1" parent="1" source="7yZ7YFMZfSHpDbEFMPb3-14" target="7yZ7YFMZfSHpDbEFMPb3-17">
          <mxGeometry relative="1" as="geometry" />
        </mxCell>
        <mxCell id="7yZ7YFMZfSHpDbEFMPb3-14" value="使用工具导出模型结果数据发回公司" style="whiteSpace=wrap;html=1;fillColor=#d5e8d4;strokeColor=#82b366;rounded=0;" vertex="1" parent="1">
          <mxGeometry x="320" y="485" width="120" height="60" as="geometry" />
        </mxCell>
        <mxCell id="7yZ7YFMZfSHpDbEFMPb3-22" value="" style="edgeStyle=orthogonalEdgeStyle;rounded=0;orthogonalLoop=1;jettySize=auto;html=1;" edge="1" parent="1" source="7yZ7YFMZfSHpDbEFMPb3-17" target="7yZ7YFMZfSHpDbEFMPb3-21">
          <mxGeometry relative="1" as="geometry" />
        </mxCell>
        <mxCell id="7yZ7YFMZfSHpDbEFMPb3-17" value="基于现场样本对关键词模型深度调优" style="rounded=0;whiteSpace=wrap;html=1;fillColor=#dae8fc;strokeColor=#6c8ebf;" vertex="1" parent="1">
          <mxGeometry x="320" y="625" width="120" height="60" as="geometry" />
        </mxCell>
        <mxCell id="7yZ7YFMZfSHpDbEFMPb3-25" value="" style="edgeStyle=orthogonalEdgeStyle;rounded=0;orthogonalLoop=1;jettySize=auto;html=1;" edge="1" parent="1" source="7yZ7YFMZfSHpDbEFMPb3-21" target="7yZ7YFMZfSHpDbEFMPb3-24">
          <mxGeometry relative="1" as="geometry" />
        </mxCell>
        <mxCell id="7yZ7YFMZfSHpDbEFMPb3-21" value="部署验证优化后模型" style="whiteSpace=wrap;html=1;fillColor=#d5e8d4;strokeColor=#82b366;rounded=0;" vertex="1" parent="1">
          <mxGeometry x="320" y="765" width="120" height="60" as="geometry" />
        </mxCell>
        <mxCell id="7yZ7YFMZfSHpDbEFMPb3-27" value="" style="edgeStyle=orthogonalEdgeStyle;rounded=0;orthogonalLoop=1;jettySize=auto;html=1;" edge="1" parent="1" source="7yZ7YFMZfSHpDbEFMPb3-24" target="7yZ7YFMZfSHpDbEFMPb3-26">
          <mxGeometry relative="1" as="geometry" />
        </mxCell>
        <mxCell id="7yZ7YFMZfSHpDbEFMPb3-28" value="达到预期" style="edgeLabel;html=1;align=center;verticalAlign=middle;resizable=0;points=[];" vertex="1" connectable="0" parent="7yZ7YFMZfSHpDbEFMPb3-27">
          <mxGeometry x="-0.3143" relative="1" as="geometry">
            <mxPoint as="offset" />
          </mxGeometry>
        </mxCell>
        <mxCell id="7yZ7YFMZfSHpDbEFMPb3-29" style="edgeStyle=orthogonalEdgeStyle;rounded=0;orthogonalLoop=1;jettySize=auto;html=1;exitX=1;exitY=0.5;exitDx=0;exitDy=0;entryX=1;entryY=0.5;entryDx=0;entryDy=0;" edge="1" parent="1" source="7yZ7YFMZfSHpDbEFMPb3-24" target="7yZ7YFMZfSHpDbEFMPb3-14">
          <mxGeometry relative="1" as="geometry">
            <Array as="points">
              <mxPoint x="590" y="935" />
              <mxPoint x="590" y="515" />
            </Array>
          </mxGeometry>
        </mxCell>
        <mxCell id="7yZ7YFMZfSHpDbEFMPb3-30" value="未达到预期" style="edgeLabel;html=1;align=center;verticalAlign=middle;resizable=0;points=[];" vertex="1" connectable="0" parent="7yZ7YFMZfSHpDbEFMPb3-29">
          <mxGeometry x="-0.7857" y="2" relative="1" as="geometry">
            <mxPoint as="offset" />
          </mxGeometry>
        </mxCell>
        <mxCell id="7yZ7YFMZfSHpDbEFMPb3-24" value="基础模型效果判断" style="rhombus;whiteSpace=wrap;html=1;fillColor=#d5e8d4;strokeColor=#82b366;rounded=0;" vertex="1" parent="1">
          <mxGeometry x="340" y="895" width="80" height="80" as="geometry" />
        </mxCell>
        <mxCell id="7yZ7YFMZfSHpDbEFMPb3-26" value="完成发布" style="whiteSpace=wrap;html=1;fillColor=#d5e8d4;strokeColor=#82b366;rounded=0;" vertex="1" parent="1">
          <mxGeometry x="320" y="1065" width="120" height="60" as="geometry" />
        </mxCell>
      </root>
    </mxGraphModel>
  </diagram>
</mxfile>
